TITLE "132.700, flac"
FILE "132.700.flac" WAVE

TRACK 01 AUDIO
TITLE "2020.02.06-06:02.05:029194"
INDEX 01 03:04:52

TRACK 02 AUDIO
TITLE "2020.02.06-06:03.20:034285"
INDEX 00 03:19:63
INDEX 01 04:19:53

TRACK 03 AUDIO
TITLE "2020.02.06-06:05.48:412416"
INDEX 00 04:35:23
INDEX 01 06:48:06

TRACK 04 AUDIO
TITLE "2020.02.06-06:08.18:292868"
INDEX 00 07:07:44
INDEX 01 09:17:72

TRACK 05 AUDIO
TITLE "2020.02.06-06:08.24:189274"
INDEX 00 09:22:62
INDEX 01 09:23:64

TRACK 06 AUDIO
TITLE "2020.02.06-06:09.09:710875"
INDEX 00 09:34:13
INDEX 01 10:09:29

TRACK 07 AUDIO
TITLE "2020.02.06-06:10.33:429115"
INDEX 00 10:17:38
INDEX 01 11:33:07

TRACK 08 AUDIO
TITLE "2020.02.06-06:10.37:989185"
INDEX 00 11:37:46
INDEX 01 11:37:49

TRACK 09 AUDIO
TITLE "2020.02.06-06:11.36:949319"
INDEX 00 11:49:12
INDEX 01 12:36:46

TRACK 10 AUDIO
TITLE "2020.02.06-06:12.35:609105"
INDEX 00 13:02:67
INDEX 01 13:35:21

TRACK 11 AUDIO
TITLE "2020.02.06-06:13.46:069118"
INDEX 00 13:52:21
INDEX 01 14:45:55

TRACK 12 AUDIO
TITLE "2020.02.06-06:13.54:229198"
INDEX 00 14:52:70
INDEX 01 14:53:67

TRACK 13 AUDIO
TITLE "2020.02.06-06:14.47:169131"
INDEX 00 15:05:01
INDEX 01 15:46:63

TRACK 14 AUDIO
TITLE "2020.02.06-06:14.49:969213"
INDEX 00 15:48:70
INDEX 01 15:49:48

TRACK 15 AUDIO
TITLE "2020.02.06-06:15.14:609142"
INDEX 00 16:12:66
INDEX 01 16:14:21

TRACK 16 AUDIO
TITLE "2020.02.06-06:15.32:449152"
INDEX 00 16:18:01
INDEX 01 16:32:09

TRACK 17 AUDIO
TITLE "2020.02.06-06:16.01:454061"
INDEX 00 17:00:01
INDEX 01 17:01:09

TRACK 18 AUDIO
TITLE "2020.02.06-06:16.41:489216"
INDEX 00 17:14:11
INDEX 01 17:41:12

TRACK 19 AUDIO
TITLE "2020.02.06-06:17.02:369107"
INDEX 00 17:57:24
INDEX 01 18:02:03

TRACK 20 AUDIO
TITLE "2020.02.06-06:17.17:609137"
INDEX 00 18:13:24
INDEX 01 18:17:21

TRACK 21 AUDIO
TITLE "2020.02.06-06:17.27:109151"
INDEX 00 18:23:72
INDEX 01 18:26:58

TRACK 22 AUDIO
TITLE "2020.02.06-06:17.32:889759"
INDEX 00 18:30:69
INDEX 01 18:32:42

TRACK 23 AUDIO
TITLE "2020.02.06-06:17.38:709210"
INDEX 00 18:37:66
INDEX 01 18:38:28

TRACK 24 AUDIO
TITLE "2020.02.06-06:18.16:229219"
INDEX 00 18:52:03
INDEX 01 19:15:67

TRACK 25 AUDIO
TITLE "2020.02.06-06:18.44:989382"
INDEX 00 19:28:27
INDEX 01 19:44:49

TRACK 26 AUDIO
TITLE "2020.02.06-06:18.56:589321"
INDEX 00 19:55:57
INDEX 01 19:56:19

TRACK 27 AUDIO
TITLE "2020.02.06-06:19.08:070469"
INDEX 00 19:59:19
INDEX 01 20:07:55

TRACK 28 AUDIO
TITLE "2020.02.06-06:19.17:494041"
INDEX 00 20:15:45
INDEX 01 20:17:12

TRACK 29 AUDIO
TITLE "2020.02.06-06:19.22:509257"
INDEX 00 20:21:14
INDEX 01 20:22:13

TRACK 30 AUDIO
TITLE "2020.02.06-06:19.48:269274"
INDEX 00 20:25:31
INDEX 01 20:47:70

TRACK 31 AUDIO
TITLE "2020.02.06-06:19.52:990601"
INDEX 00 20:52:10
INDEX 01 20:52:49

TRACK 32 AUDIO
TITLE "2020.02.06-06:20.03:292315"
INDEX 00 21:02:52
INDEX 01 21:02:72

TRACK 33 AUDIO
TITLE "2020.02.06-06:20.22:269294"
INDEX 00 21:18:29
INDEX 01 21:21:70

TRACK 34 AUDIO
TITLE "2020.02.06-06:20.30:449191"
INDEX 00 21:29:52
INDEX 01 21:30:09

TRACK 35 AUDIO
TITLE "2020.02.06-06:20.48:469187"
INDEX 00 21:37:37
INDEX 01 21:48:10

TRACK 36 AUDIO
TITLE "2020.02.06-06:21.00:191760"
INDEX 00 21:56:63
INDEX 01 21:59:65

TRACK 37 AUDIO
TITLE "2020.02.06-06:21.26:169142"
INDEX 00 22:25:41
INDEX 01 22:25:63

TRACK 38 AUDIO
TITLE "2020.02.06-06:21.34:129239"
INDEX 00 22:31:67
INDEX 01 22:33:60

TRACK 39 AUDIO
TITLE "2020.02.06-06:22.10:530983"
INDEX 00 22:42:52
INDEX 01 23:10:15

TRACK 40 AUDIO
TITLE "2020.02.06-06:22.40:349321"
INDEX 00 23:18:62
INDEX 01 23:40:01

TRACK 41 AUDIO
TITLE "2020.02.06-06:23.03:989234"
INDEX 00 24:03:22
INDEX 01 24:03:49

TRACK 42 AUDIO
TITLE "2020.02.06-06:23.08:030489"
INDEX 00 24:05:04
INDEX 01 24:07:52

TRACK 43 AUDIO
TITLE "2020.02.06-06:23.26:169076"
INDEX 00 24:24:10
INDEX 01 24:25:63

TRACK 44 AUDIO
TITLE "2020.02.06-06:23.43:029247"
INDEX 00 24:34:58
INDEX 01 24:42:52

TRACK 45 AUDIO
TITLE "2020.02.06-06:23.50:532140"
INDEX 00 24:49:00
INDEX 01 24:50:15

TRACK 46 AUDIO
TITLE "2020.02.06-06:24.30:172566"
INDEX 00 24:56:60
INDEX 01 25:29:63

TRACK 47 AUDIO
TITLE "2020.02.06-06:24.54:772943"
INDEX 00 25:50:02
INDEX 01 25:54:33

TRACK 48 AUDIO
TITLE "2020.02.06-06:25.12:909161"
INDEX 00 26:12:03
INDEX 01 26:12:43

TRACK 49 AUDIO
TITLE "2020.02.06-06:25.32:689192"
INDEX 00 26:16:24
INDEX 01 26:32:27

TRACK 50 AUDIO
TITLE "2020.02.06-06:25.41:789068"
INDEX 00 26:40:72
INDEX 01 26:41:34

TRACK 51 AUDIO
TITLE "2020.02.06-06:26.46:749243"
INDEX 00 27:40:61
INDEX 01 27:46:31

TRACK 52 AUDIO
TITLE "2020.02.06-06:26.57:629148"
INDEX 00 27:57:12
INDEX 01 27:57:22

TRACK 53 AUDIO
TITLE "2020.02.06-06:27.04:449274"
INDEX 00 28:03:51
INDEX 01 28:04:09

TRACK 54 AUDIO
TITLE "2020.02.06-06:27.09:089313"
INDEX 00 28:07:70
INDEX 01 28:08:57

TRACK 55 AUDIO
TITLE "2020.02.06-06:27.49:949160"
INDEX 00 28:20:58
INDEX 01 28:49:46

TRACK 56 AUDIO
TITLE "2020.02.06-06:28.36:769283"
INDEX 00 29:19:34
INDEX 01 29:36:33

TRACK 57 AUDIO
TITLE "2020.02.06-06:29.12:949191"
INDEX 00 29:49:40
INDEX 01 30:12:46

TRACK 58 AUDIO
TITLE "2020.02.06-06:29.41:909229"
INDEX 00 30:27:33
INDEX 01 30:41:43

TRACK 59 AUDIO
TITLE "2020.02.06-06:30.04:329376"
INDEX 00 30:53:30
INDEX 01 31:04:00

TRACK 60 AUDIO
TITLE "2020.02.06-06:30.22:289144"
INDEX 00 31:19:39
INDEX 01 31:21:72

TRACK 61 AUDIO
TITLE "2020.02.06-06:31.21:669142"
INDEX 00 31:38:27
INDEX 01 32:21:25

TRACK 62 AUDIO
TITLE "2020.02.06-06:31.58:669207"
INDEX 00 32:34:18
INDEX 01 32:58:25

TRACK 63 AUDIO
TITLE "2020.02.06-06:32.41:709105"
INDEX 00 33:07:73
INDEX 01 33:41:28

TRACK 64 AUDIO
TITLE "2020.02.06-06:32.50:329239"
INDEX 00 33:48:70
INDEX 01 33:50:00

TRACK 65 AUDIO
TITLE "2020.02.06-06:33.02:589264"
INDEX 00 33:56:22
INDEX 01 34:02:19

TRACK 66 AUDIO
TITLE "2020.02.06-06:33.07:609162"
INDEX 00 34:06:42
INDEX 01 34:07:21

TRACK 67 AUDIO
TITLE "2020.02.06-06:33.41:450152"
INDEX 00 34:17:00
INDEX 01 34:41:09

TRACK 68 AUDIO
TITLE "2020.02.06-06:33.58:589155"
INDEX 00 34:53:15
INDEX 01 34:58:19

TRACK 69 AUDIO
TITLE "2020.02.06-06:34.34:534462"
INDEX 00 35:05:40
INDEX 01 35:34:15

TRACK 70 AUDIO
TITLE "2020.02.06-06:35.01:293514"
INDEX 00 35:41:17
INDEX 01 36:00:72

TRACK 71 AUDIO
TITLE "2020.02.06-06:35.35:849067"
INDEX 00 36:17:39
INDEX 01 36:35:39

TRACK 72 AUDIO
TITLE "2020.02.06-06:36.00:449213"
INDEX 00 36:44:42
INDEX 01 37:00:09

TRACK 73 AUDIO
TITLE "2020.02.06-06:37.30:349166"
INDEX 00 37:16:07
INDEX 01 38:30:01

TRACK 74 AUDIO
TITLE "2020.02.06-06:37.48:549205"
INDEX 00 38:40:19
INDEX 01 38:48:16

TRACK 75 AUDIO
TITLE "2020.02.06-06:38.52:494337"
INDEX 00 38:57:07
INDEX 01 39:52:12

TRACK 76 AUDIO
TITLE "2020.02.06-06:39.05:129300"
INDEX 00 40:02:15
INDEX 01 40:04:60

TRACK 77 AUDIO
TITLE "2020.02.06-06:39.58:829124"
INDEX 00 40:26:01
INDEX 01 40:58:37

TRACK 78 AUDIO
TITLE "2020.02.06-06:40.15:032079"
INDEX 00 41:11:18
INDEX 01 41:14:53

TRACK 79 AUDIO
TITLE "2020.02.06-06:40.54:669332"
INDEX 00 41:21:42
INDEX 01 41:54:25

TRACK 80 AUDIO
TITLE "2020.02.06-06:41.32:529218"
INDEX 00 42:19:66
INDEX 01 42:32:15

TRACK 81 AUDIO
TITLE "2020.02.06-06:42.32:289192"
INDEX 00 42:39:52
INDEX 01 43:31:72

TRACK 82 AUDIO
TITLE "2020.02.06-06:43.57:169179"
INDEX 00 44:02:60
INDEX 01 44:56:63

TRACK 83 AUDIO
TITLE "2020.02.06-06:44.40:949284"
INDEX 00 45:06:48
INDEX 01 45:40:46

TRACK 84 AUDIO
TITLE "2020.02.06-06:46.20:969145"
INDEX 00 45:49:09
INDEX 01 47:20:48

TRACK 85 AUDIO
TITLE "2020.02.06-06:46.24:889180"
INDEX 00 47:24:07
INDEX 01 47:24:42

TRACK 86 AUDIO
TITLE "2020.02.06-06:46.40:149159"
INDEX 00 47:28:49
INDEX 01 47:39:61

TRACK 87 AUDIO
TITLE "2020.02.06-06:47.40:169056"
INDEX 00 48:03:39
INDEX 01 48:39:63

TRACK 88 AUDIO
TITLE "2020.02.06-06:47.46:629067"
INDEX 00 48:45:69
INDEX 01 48:46:22

TRACK 89 AUDIO
TITLE "2020.02.06-06:48.06:531570"
INDEX 00 48:56:49
INDEX 01 49:06:15

TRACK 90 AUDIO
TITLE "2020.02.06-06:48.46:369118"
INDEX 00 49:16:74
INDEX 01 49:46:03

TRACK 91 AUDIO
TITLE "2020.02.06-06:49.03:531283"
INDEX 00 50:01:09
INDEX 01 50:03:15

TRACK 92 AUDIO
TITLE "2020.02.06-06:49.08:229270"
INDEX 00 50:07:09
INDEX 01 50:07:67

TRACK 93 AUDIO
TITLE "2020.02.06-06:49.16:049184"
INDEX 00 50:10:46
INDEX 01 50:15:54

TRACK 94 AUDIO
TITLE "2020.02.06-06:49.25:329139"
INDEX 00 50:23:07
INDEX 01 50:25:00

TRACK 95 AUDIO
TITLE "2020.02.06-06:49.57:869296"
INDEX 00 50:45:42
INDEX 01 50:57:40

TRACK 96 AUDIO
TITLE "2020.02.06-06:50.11:549235"
INDEX 00 51:05:72
INDEX 01 51:11:16

TRACK 97 AUDIO
TITLE "2020.02.06-06:50.20:029321"
INDEX 00 51:15:34
INDEX 01 51:19:52

TRACK 98 AUDIO
TITLE "2020.02.06-06:50.26:929343"
INDEX 00 51:23:45
INDEX 01 51:26:45

TRACK 99 AUDIO
TITLE "2020.02.06-06:51.54:809036"
INDEX 00 51:36:58
INDEX 01 52:54:36

TRACK 100 AUDIO
TITLE "2020.02.06-06:52.37:569126"
INDEX 00 53:06:60
INDEX 01 53:37:18

TRACK 101 AUDIO
TITLE "2020.02.06-06:52.53:929179"
INDEX 00 53:44:58
INDEX 01 53:53:45

TRACK 102 AUDIO
TITLE "2020.02.06-06:53.16:234352"
INDEX 00 54:10:60
INDEX 01 54:15:68

TRACK 103 AUDIO
TITLE "2020.02.06-06:53.26:809261"
INDEX 00 54:22:32
INDEX 01 54:26:36

TRACK 104 AUDIO
TITLE "2020.02.06-06:53.54:209102"
INDEX 00 54:32:64
INDEX 01 54:53:66

TRACK 105 AUDIO
TITLE "2020.02.06-06:54.38:269200"
INDEX 00 55:03:64
INDEX 01 55:37:70

TRACK 106 AUDIO
TITLE "2020.02.06-06:55.11:169194"
INDEX 00 55:59:16
INDEX 01 56:10:63

TRACK 107 AUDIO
TITLE "2020.02.06-06:55.43:451474"
INDEX 00 56:25:28
INDEX 01 56:43:09

TRACK 108 AUDIO
TITLE "2020.02.06-06:55.56:329038"
INDEX 00 56:54:15
INDEX 01 56:56:00

TRACK 109 AUDIO
TITLE "2020.02.06-06:56.18:771239"
INDEX 00 57:03:22
INDEX 01 57:18:33

TRACK 110 AUDIO
TITLE "2020.02.06-06:56.58:369326"
INDEX 00 57:27:62
INDEX 01 57:58:03

TRACK 111 AUDIO
TITLE "2020.02.06-06:57.36:649277"
INDEX 00 58:12:06
INDEX 01 58:36:24

TRACK 112 AUDIO
TITLE "2020.02.06-06:57.44:989273"
INDEX 00 58:44:22
INDEX 01 58:44:49

TRACK 113 AUDIO
TITLE "2020.02.06-06:59.06:769131"
INDEX 00 58:59:67
INDEX 01 60:06:33

TRACK 114 AUDIO
TITLE "2020.02.06-06:59.24:809377"
INDEX 00 60:22:03
INDEX 01 60:24:36

TRACK 115 AUDIO
TITLE "2020.02.06-06:59.28:509411"
INDEX 00 60:28:09
INDEX 01 60:28:13

TRACK 116 AUDIO
TITLE "2020.02.06-06:59.31:829363"
INDEX 00 60:31:21
INDEX 01 60:31:37

TRACK 117 AUDIO
TITLE "2020.02.06-06:59.37:589145"
INDEX 00 60:32:73
INDEX 01 60:37:19

TRACK 118 AUDIO
TITLE "2020.02.06-07:00.40:453086"
INDEX 00 60:48:28
INDEX 01 61:40:09

TRACK 119 AUDIO
TITLE "2020.02.06-07:00.44:711276"
INDEX 00 61:43:65
INDEX 01 61:44:29

TRACK 120 AUDIO
TITLE "2020.02.06-07:00.56:951802"
INDEX 00 61:52:65
INDEX 01 61:56:47

TRACK 121 AUDIO
TITLE "2020.02.06-07:01.14:789105"
INDEX 00 62:07:06
INDEX 01 62:14:34

